# Blender v2.62 (sub 0) OBJ File: ''
# www.blender.org
mtllib cursor.mtl
o Mesh_Cube.001
v 0.177295 -1.999230 -0.962333
v -0.017795 -1.999230 -0.981547
v -0.017795 0.000770 0.018453
v 0.364888 -1.999230 -0.905427
v 0.813675 -1.999230 -0.537117
v 0.689312 -1.999230 -0.688654
v 0.906084 -1.999230 -0.364231
v 0.962990 -1.999230 0.213543
v 0.982205 -1.999230 0.018453
v 0.906084 -1.999230 0.401136
v 0.537775 -1.999230 0.849922
v 0.689312 -1.999230 0.725559
v 0.364888 -1.999230 0.942332
v -0.212886 -1.999230 0.999238
v -0.017795 -1.999230 1.018453
v -0.400479 -1.999230 0.942332
v -0.849265 -1.999230 0.574022
v -0.724902 -1.999230 0.725559
v -0.941675 -1.999230 0.401135
v -0.998580 -1.999230 -0.176639
v -1.017795 -1.999230 0.018452
v -0.941674 -1.999230 -0.364232
v -0.573364 -1.999230 -0.813018
v -0.724901 -1.999230 -0.688655
v -0.400477 -1.999230 -0.905427
v -0.017795 -1.999230 0.018453
vn 0.087750 0.445489 -0.890977
vn 0.259890 0.445489 -0.856736
vn 0.692067 0.445489 -0.567964
vn 0.789574 0.445488 -0.422034
vn 0.890977 0.445488 0.087755
vn 0.856737 0.445488 0.259890
vn 0.567964 0.445488 0.692067
vn 0.422036 0.445488 0.789573
vn -0.087754 0.445488 0.890977
vn -0.259890 0.445488 0.856737
vn -0.692067 0.445488 0.567964
vn -0.789573 0.445488 0.422036
vn -0.890977 0.445488 -0.087754
vn -0.856737 0.445488 -0.259889
vn -0.567964 0.445489 -0.692067
vn -0.422032 0.445489 -0.789575
vn 0.000000 -1.000000 -0.000000
vn -0.000000 -1.000000 -0.000001
usemtl Material.001
s off
f 1//1 2//1 3//1
f 4//2 1//2 3//2
f 3//3 5//3 6//3
f 3//4 7//4 5//4
f 3//5 8//5 9//5
f 3//6 10//6 8//6
f 3//7 11//7 12//7
f 3//8 13//8 11//8
f 3//9 14//9 15//9
f 3//10 16//10 14//10
f 3//11 17//11 18//11
f 3//12 19//12 17//12
f 3//13 20//13 21//13
f 3//14 22//14 20//14
f 3//15 23//15 24//15
f 3//16 25//16 23//16
f 2//17 1//17 26//17
f 26//17 1//17 4//17
f 26//17 6//17 5//17
f 26//18 5//18 7//18
f 26//17 9//17 8//17
f 26//18 8//18 10//18
f 26//17 12//17 11//17
f 26//17 11//17 13//17
f 26//17 15//17 14//17
f 26//17 14//17 16//17
f 26//17 18//17 17//17
f 26//17 17//17 19//17
f 26//17 21//17 20//17
f 26//17 20//17 22//17
f 26//17 24//17 23//17
f 26//17 23//17 25//17
