# Blender v2.62 (sub 0) OBJ File: ''
# www.blender.org
mtllib pecinha1x2.mtl
o Mesh_Mesh.001_Cube.009_Cube.014
v -0.233690 -2.034324 0.417680
v -0.965009 -2.034324 0.019114
v -0.188119 -2.034324 0.403856
v 1.007901 -2.034324 0.009483
v 1.017320 -2.034324 0.009483
v 1.007901 -2.034324 0.014654
v 1.007901 -2.034324 0.016515
v 0.571430 -2.034324 0.661910
v 0.488964 -2.034324 0.561424
v 0.632708 -2.034324 0.776553
v 0.670443 -2.034324 0.900948
v 0.683185 -2.034324 1.030315
v 1.017320 -2.034324 2.009483
v 0.632708 -2.034324 1.284076
v 0.670443 -2.034324 1.159681
v 0.571430 -2.034324 1.398720
v 0.488963 -2.034324 1.499205
v 0.388478 -2.034324 1.581671
v 0.273835 -2.034324 1.642949
v 0.149440 -2.034324 1.680684
v 0.020073 -2.034324 1.693426
v -0.982680 -2.034324 2.009483
v -0.233689 -2.034324 1.642950
v -0.109293 -2.034324 1.680684
v -0.348332 -2.034324 1.581671
v -0.448817 -2.034324 1.499205
v -0.531284 -2.034324 1.398720
v -0.592562 -2.034324 1.284077
v -0.630297 -2.034324 1.159682
v -0.643038 -2.034324 1.030315
v -0.982680 -2.034324 0.019114
v 0.020073 -2.520169 1.030314
v 0.020073 -2.520169 0.367203
v 0.149440 -2.520169 0.379945
v 0.273835 -2.520169 0.417680
v 0.388478 -2.520169 0.478957
v 0.488964 -2.520169 0.561424
v 0.571430 -2.520169 0.661909
v 0.632708 -2.520169 0.776553
v 0.670443 -2.520169 0.900948
v 0.683185 -2.520169 1.030314
v 0.670443 -2.520169 1.159681
v 0.632708 -2.520169 1.284076
v 0.571430 -2.520169 1.398719
v 0.488964 -2.520169 1.499205
v 0.388478 -2.520169 1.581671
v 0.273835 -2.520169 1.642950
v 0.149439 -2.520169 1.680684
v 0.020073 -2.520169 1.693426
v -0.109294 -2.520169 1.680684
v -0.233689 -2.520169 1.642949
v -0.348332 -2.520169 1.581671
v -0.448818 -2.520169 1.499205
v -0.531284 -2.520169 1.398719
v -0.592562 -2.520169 1.284076
v -0.630297 -2.520169 1.159680
v -0.643038 -2.520169 1.030314
v -0.630297 -2.520169 0.900947
v -0.592562 -2.520169 0.776552
v -0.531283 -2.520169 0.661909
v -0.448817 -2.520169 0.561423
v -0.348331 -2.520169 0.478957
v -0.233688 -2.520169 0.417679
v -0.109293 -2.520169 0.379945
v -0.109295 -2.034324 0.379945
v -0.243108 -2.043053 -1.572690
v -0.357751 -2.043053 -1.511411
v -0.992099 -2.043053 -1.980886
v 0.010655 -2.043053 -1.623166
v -0.118713 -2.043053 -1.610424
v 0.140022 -2.043053 -1.610425
v -0.458237 -2.043053 -1.428944
v 1.007901 -2.043053 -1.980886
v 0.379060 -2.043053 -1.511411
v 0.264417 -2.043053 -1.572690
v 0.479545 -2.043053 -1.428945
v 0.562012 -2.043053 -1.328460
v 0.623290 -2.043053 -1.213816
v 0.661025 -2.043053 -1.089421
v 0.673766 -2.043053 -0.960054
v -0.540703 -2.043053 -1.328459
v 1.007901 -2.043053 0.019114
v 0.623289 -2.043053 -0.706293
v 0.661024 -2.043053 -0.830688
v 0.562011 -2.043053 -0.591650
v 0.479545 -2.043053 -0.491164
v 0.379059 -2.043053 -0.408698
v 0.264416 -2.043053 -0.347420
v 0.140021 -2.043053 -0.309685
v 0.010655 -2.043053 -0.296943
v -0.601981 -2.043053 -1.213815
v -0.992099 -2.043053 0.019114
v -0.243107 -2.043053 -0.347420
v -0.118712 -2.043053 -0.309685
v -0.357750 -2.043053 -0.408698
v -0.458236 -2.043053 -0.491164
v -0.540702 -2.043053 -0.591649
v -0.601980 -2.043053 -0.706292
v -0.639715 -2.043053 -1.089421
v -0.639715 -2.043053 -0.830688
v -0.652457 -2.043053 -0.960054
v 1.007901 -2.034324 0.019114
v -0.976017 -2.034324 0.019114
v -0.977782 -2.034324 0.019114
v 0.010655 -2.528898 -0.960055
v 0.010655 -2.528898 -1.623166
v 0.140021 -2.528898 -1.610425
v 0.264416 -2.528898 -1.572690
v 0.379059 -2.528898 -1.511411
v 0.479545 -2.528898 -1.428945
v 0.562012 -2.528898 -1.328460
v 0.623290 -2.528898 -1.213816
v 0.661024 -2.528898 -1.089421
v 0.673766 -2.528898 -0.960055
v 0.661024 -2.528898 -0.830688
v 0.623290 -2.528898 -0.706293
v 0.562012 -2.528898 -0.591650
v 0.479545 -2.528898 -0.491164
v 0.379059 -2.528898 -0.408698
v 0.264416 -2.528898 -0.347420
v 0.140021 -2.528898 -0.309685
v 0.010654 -2.528898 -0.296943
v -0.118712 -2.528898 -0.309685
v -0.243107 -2.528898 -0.347420
v -0.357751 -2.528898 -0.408698
v -0.458236 -2.528898 -0.491164
v -0.540703 -2.528898 -0.591650
v -0.601981 -2.528898 -0.706293
v -0.639715 -2.528898 -0.830689
v -0.652457 -2.528898 -0.960055
v -0.639715 -2.528898 -1.089422
v -0.601980 -2.528898 -1.213817
v -0.540702 -2.528898 -1.328460
v -0.458235 -2.528898 -1.428946
v -0.357750 -2.528898 -1.511412
v -0.243106 -2.528898 -1.572690
v -0.118711 -2.528898 -1.610425
v -0.197538 -2.043053 -1.586513
v 1.017319 -0.034323 2.009484
v 1.007902 -0.043052 -1.980885
v 0.699330 -0.034323 1.655193
v 0.689912 -0.043052 -1.693198
v 0.699330 -1.074564 1.655193
v 0.689912 -1.083293 -1.693199
v -0.982681 -0.034323 2.009483
v -0.992099 -0.043052 -1.980886
v -0.658692 -0.034323 1.655192
v -0.668111 -0.043052 -1.693199
v -0.658692 -1.074564 1.655192
v -0.668110 -1.083293 -1.693199
v -0.658692 -1.074564 0.297170
v 0.699330 -1.074564 0.297170
v 0.689912 -1.083293 -0.335176
v -0.668111 -1.083293 -0.335177
v 1.004419 -2.034324 0.019114
v -0.953248 -2.034324 0.019114
v 0.999778 -2.034324 0.019114
v -0.959975 -2.034324 0.019114
v -0.955683 -2.034324 0.019114
v -0.969667 -2.034324 0.019114
v -0.973365 -2.034324 0.019114
v -0.978873 -2.034324 0.019114
v 0.020073 -2.034324 0.367203
v -0.348333 -2.034324 0.478958
v -0.448818 -2.034324 0.561424
v -0.531284 -2.034324 0.661910
v -0.592562 -2.034324 0.776553
v -0.630297 -2.034324 0.900948
v 0.388478 -2.034324 0.478958
v 0.273835 -2.034324 0.417680
v 0.149440 -2.034324 0.379945
v -0.982680 -0.043052 0.009483
vn -0.000000 -1.000000 0.000000
vn -0.000002 -1.000000 -0.000001
vn 0.000001 -1.000000 -0.000000
vn -0.000001 -1.000000 -0.000002
vn 0.000001 -1.000000 -0.000002
vn -0.290285 -0.000001 -0.956940
vn 0.000002 -1.000000 -0.000001
vn 1.000000 -0.000000 0.000000
vn 0.000000 -0.000000 1.000000
vn 0.000000 -1.000000 -0.000002
vn -0.290281 0.000001 -0.956941
vn 0.002444 0.999995 -0.002193
vn -0.002353 0.999994 -0.002600
vn 0.999997 -0.000001 -0.002360
vn 0.999997 0.000001 -0.002360
vn -0.999996 -0.000000 0.002813
vn -0.999997 -0.000000 0.002360
vn -0.002386 0.999995 -0.002182
vn 0.002321 0.999994 -0.002613
vn 0.999996 0.000000 -0.002813
vn 0.999996 0.000001 -0.002813
vn 0.000000 0.999905 -0.013803
vn -0.098014 0.000000 -0.995185
vn -0.098019 0.000002 -0.995184
vn -0.290286 -0.000000 -0.956940
vn -0.290276 -0.000001 -0.956943
vn -0.471394 -0.000002 -0.881923
vn -0.471403 0.000001 -0.881918
vn -0.634394 0.000000 -0.773010
vn -0.634394 0.000001 -0.773009
vn -0.773010 -0.000001 -0.634394
vn -0.773010 -0.000000 -0.634394
vn -0.881921 -0.000001 -0.471397
vn -0.881923 0.000000 -0.471394
vn -0.956940 -0.000001 -0.290286
vn -0.956941 0.000001 -0.290281
vn -0.995184 0.000000 -0.098020
vn -0.995184 0.000000 -0.098021
vn -0.995184 -0.000000 0.098021
vn -0.956943 -0.000001 0.290277
vn -0.956941 0.000001 0.290284
vn -0.881921 0.000001 0.471397
vn -0.773009 0.000000 0.634394
vn -0.773010 -0.000000 0.634394
vn -0.634394 -0.000000 0.773010
vn -0.634390 0.000001 0.773013
vn -0.471394 0.000001 0.881923
vn -0.471397 -0.000000 0.881921
vn -0.290286 -0.000000 0.956940
vn -0.098021 -0.000000 0.995184
vn 0.098021 -0.000000 0.995184
vn 0.290286 -0.000000 0.956940
vn 0.471397 -0.000000 0.881921
vn 0.634390 -0.000000 0.773013
vn 0.773009 0.000002 0.634395
vn 0.773013 -0.000000 0.634390
vn 0.881921 0.000002 0.471397
vn 0.956942 -0.000000 0.290279
vn 0.956940 0.000002 0.290286
vn 0.995184 -0.000000 0.098021
vn 0.995184 -0.000000 0.098022
vn 0.995184 -0.000002 -0.098022
vn 0.995185 0.000000 -0.098013
vn 0.956942 0.000000 -0.290279
vn 0.956940 -0.000002 -0.290286
vn 0.881923 0.000000 -0.471394
vn 0.773006 0.000000 -0.634399
vn 0.634390 -0.000001 -0.773013
vn 0.634394 0.000000 -0.773010
vn 0.471403 -0.000001 -0.881918
vn 0.290286 -0.000001 -0.956940
vn 0.098014 0.000000 -0.995185
vn 0.098013 -0.000000 -0.995185
vn 0.000000 -0.000001 1.000000
vn -0.000001 -0.000000 1.000000
vn -0.000000 1.000000 0.000000
vn 0.000000 0.000000 -1.000000
vn 0.000000 0.000001 -1.000000
vn 0.000000 0.000000 0.000000
vn -0.000001 -1.000000 -0.000000
vn -0.098022 0.000000 -0.995184
vn -0.098020 -0.000000 -0.995184
vn -0.290279 -0.000000 -0.956942
vn -0.290288 0.000001 -0.956939
vn -0.471397 0.000000 -0.881921
vn -0.634390 -0.000001 -0.773013
vn -0.773013 -0.000000 -0.634390
vn -0.881918 -0.000001 -0.471403
vn -0.881921 0.000001 -0.471397
vn -0.956940 0.000001 -0.290286
vn -0.995185 0.000000 -0.098013
vn -0.995185 -0.000000 0.098014
vn -0.995185 -0.000000 0.098013
vn -0.956941 -0.000001 0.290284
vn -0.956940 -0.000001 0.290286
vn -0.881921 -0.000001 0.471397
vn -0.773013 -0.000001 0.634390
vn -0.773006 0.000002 0.634398
vn -0.471403 -0.000002 0.881918
vn -0.290286 -0.000002 0.956940
vn -0.290276 0.000001 0.956943
vn -0.098022 0.000000 0.995184
vn 0.098022 -0.000000 0.995184
vn 0.290276 -0.000001 0.956943
vn 0.290286 0.000002 0.956940
vn 0.471403 0.000002 0.881918
vn 0.634390 0.000001 0.773013
vn 0.634394 0.000000 0.773010
vn 0.773013 -0.000001 0.634390
vn 0.773006 0.000002 0.634399
vn 0.881921 0.000000 0.471397
vn 0.881923 -0.000001 0.471394
vn 0.956940 0.000000 0.290286
vn 0.995184 0.000000 -0.098021
vn 0.995184 0.000000 -0.098020
vn 0.956940 0.000000 -0.290286
vn 0.881923 0.000001 -0.471394
vn 0.881921 0.000000 -0.471397
vn 0.773010 0.000000 -0.634394
vn 0.773013 0.000001 -0.634390
vn 0.634395 0.000002 -0.773009
vn 0.634390 0.000000 -0.773013
vn 0.471391 0.000000 -0.881924
vn 0.471397 0.000002 -0.881921
vn 0.290286 0.000000 -0.956940
vn 0.098021 0.000000 -0.995184
vn 0.000001 0.000000 -1.000000
usemtl Material.002
s off
f 1//1 2//1 3//1
f 4//1 5//1 6//1
f 5//1 7//1 6//1
f 5//1 8//1 9//1
f 5//2 10//2 8//2
f 5//1 11//1 10//1
f 5//3 12//3 11//3
f 13//1 14//1 15//1
f 13//1 16//1 14//1
f 13//1 17//1 16//1
f 13//1 18//1 17//1
f 13//1 19//1 18//1
f 13//1 20//1 19//1
f 13//1 21//1 20//1
f 22//1 23//1 24//1
f 22//1 25//1 23//1
f 22//1 26//1 25//1
f 22//1 27//1 26//1
f 22//1 28//1 27//1
f 22//1 29//1 28//1
f 30//1 22//1 31//1
f 22//1 30//1 29//1
f 32//1 33//1 34//1
f 32//1 34//1 35//1
f 32//1 35//1 36//1
f 32//1 36//1 37//1
f 32//1 37//1 38//1
f 32//4 38//4 39//4
f 32//1 39//1 40//1
f 32//1 40//1 41//1
f 32//1 41//1 42//1
f 32//1 42//1 43//1
f 32//1 43//1 44//1
f 32//1 44//1 45//1
f 32//1 45//1 46//1
f 32//1 46//1 47//1
f 32//1 47//1 48//1
f 32//1 48//1 49//1
f 32//1 49//1 50//1
f 32//1 50//1 51//1
f 32//1 51//1 52//1
f 32//1 52//1 53//1
f 32//1 53//1 54//1
f 32//1 54//1 55//1
f 32//1 55//1 56//1
f 32//1 56//1 57//1
f 32//1 57//1 58//1
f 32//1 58//1 59//1
f 32//5 59//5 60//5
f 32//1 60//1 61//1
f 32//1 61//1 62//1
f 32//1 62//1 63//1
f 32//1 63//1 64//1
f 64//1 33//1 32//1
f 65//6 64//6 3//6
f 66//1 67//1 68//1
f 68//1 69//1 70//1
f 68//1 71//1 69//1
f 67//1 72//1 68//1
f 73//1 74//1 75//1
f 73//1 76//1 74//1
f 73//1 77//1 76//1
f 73//1 78//1 77//1
f 73//1 79//1 78//1
f 73//1 80//1 79//1
f 72//1 81//1 68//1
f 82//7 83//7 84//7
f 82//1 85//1 83//1
f 82//1 86//1 85//1
f 82//1 87//1 86//1
f 82//1 88//1 87//1
f 82//1 89//1 88//1
f 82//1 90//1 89//1
f 81//1 91//1 68//1
f 92//1 93//1 94//1
f 92//1 95//1 93//1
f 92//1 96//1 95//1
f 92//1 97//1 96//1
f 92//1 98//1 97//1
f 91//1 99//1 68//1
f 92//2 100//2 98//2
f 92//3 101//3 100//3
f 7//8 102//8 82//8
f 82//8 73//8 4//8
f 92//9 103//9 104//9
f 105//1 106//1 107//1
f 105//1 107//1 108//1
f 105//1 108//1 109//1
f 105//1 109//1 110//1
f 105//1 110//1 111//1
f 105//1 111//1 112//1
f 105//1 112//1 113//1
f 105//1 113//1 114//1
f 105//1 114//1 115//1
f 105//10 115//10 116//10
f 105//1 116//1 117//1
f 105//1 117//1 118//1
f 105//1 118//1 119//1
f 105//1 119//1 120//1
f 105//1 120//1 121//1
f 105//1 121//1 122//1
f 105//1 122//1 123//1
f 105//1 123//1 124//1
f 105//1 124//1 125//1
f 105//1 125//1 126//1
f 105//1 126//1 127//1
f 105//1 127//1 128//1
f 105//10 128//10 129//10
f 105//1 129//1 130//1
f 105//1 130//1 131//1
f 105//1 131//1 132//1
f 105//1 132//1 133//1
f 105//1 133//1 134//1
f 105//1 134//1 135//1
f 105//1 135//1 136//1
f 105//1 136//1 137//1
f 137//1 106//1 105//1
f 70//11 137//11 138//11
f 139//12 140//12 141//12
f 140//13 142//13 141//13
f 13//14 73//14 140//14
f 13//15 140//15 139//15
f 141//16 142//16 143//16
f 142//16 144//16 143//16
f 22//17 145//17 146//17
f 22//17 146//17 68//17
f 145//18 147//18 146//18
f 147//19 148//19 146//19
f 147//20 149//20 148//20
f 149//21 150//21 148//21
f 151//22 152//22 153//22
f 151//22 153//22 154//22
f 69//23 106//23 137//23
f 69//24 137//24 70//24
f 138//25 137//25 136//25
f 138//26 136//26 66//26
f 66//27 136//27 135//27
f 66//28 135//28 67//28
f 67//29 135//29 134//29
f 67//30 134//30 72//30
f 72//31 134//31 133//31
f 72//32 133//32 81//32
f 81//33 133//33 132//33
f 81//34 132//34 91//34
f 91//35 132//35 131//35
f 91//36 131//36 99//36
f 130//37 101//37 99//37
f 130//38 99//38 131//38
f 101//39 130//39 129//39
f 101//39 129//39 100//39
f 100//40 129//40 128//40
f 100//41 128//41 98//41
f 98//42 128//42 127//42
f 98//42 127//42 97//42
f 97//43 127//43 126//43
f 97//44 126//44 96//44
f 96//45 126//45 125//45
f 96//46 125//46 95//46
f 95//47 125//47 124//47
f 95//48 124//48 93//48
f 93//49 124//49 123//49
f 93//49 123//49 94//49
f 94//50 123//50 122//50
f 94//50 122//50 90//50
f 90//51 122//51 121//51
f 90//51 121//51 89//51
f 89//52 121//52 120//52
f 89//52 120//52 88//52
f 88//53 120//53 119//53
f 88//53 119//53 87//53
f 119//54 118//54 86//54
f 119//54 86//54 87//54
f 118//55 117//55 85//55
f 118//56 85//56 86//56
f 117//57 116//57 83//57
f 117//57 83//57 85//57
f 116//58 115//58 84//58
f 116//59 84//59 83//59
f 115//60 114//60 80//60
f 115//61 80//61 84//61
f 114//62 113//62 79//62
f 114//63 79//63 80//63
f 113//64 112//64 78//64
f 113//65 78//65 79//65
f 112//66 111//66 77//66
f 112//66 77//66 78//66
f 111//67 110//67 76//67
f 111//67 76//67 77//67
f 110//68 109//68 74//68
f 110//69 74//69 76//69
f 109//70 108//70 75//70
f 109//70 75//70 74//70
f 108//71 107//71 71//71
f 108//71 71//71 75//71
f 107//72 106//72 69//72
f 107//73 69//73 71//73
f 150//74 144//74 142//74
f 150//75 142//75 148//75
f 150//76 154//76 153//76
f 150//76 153//76 144//76
f 73//77 68//77 146//77
f 73//78 146//78 140//78
f 82//9 102//9 155//9
f 82//9 155//9 92//9
f 92//9 155//9 156//9
f 155//79 157//79 156//79
f 92//9 156//9 158//9
f 156//79 159//79 158//79
f 2//79 160//79 158//79
f 160//9 92//9 158//9
f 92//9 160//9 103//9
f 160//79 161//79 103//79
f 92//9 104//9 31//9
f 104//79 162//79 31//79
f 6//79 7//79 4//79
f 7//8 82//8 4//8
f 146//76 148//76 140//76
f 148//76 142//76 140//76
f 92//1 68//1 101//1
f 68//1 99//1 101//1
f 82//1 92//1 90//1
f 92//1 94//1 90//1
f 73//1 82//1 80//1
f 82//80 84//80 80//80
f 68//1 73//1 71//1
f 73//1 75//1 71//1
f 68//1 70//1 66//1
f 70//1 138//1 66//1
f 163//81 33//81 64//81
f 163//82 64//82 65//82
f 3//83 64//83 63//83
f 63//84 1//84 3//84
f 1//85 63//85 62//85
f 1//85 62//85 164//85
f 164//86 62//86 61//86
f 164//29 61//29 165//29
f 165//87 61//87 60//87
f 165//87 60//87 166//87
f 166//88 60//88 59//88
f 166//89 59//89 167//89
f 167//90 59//90 58//90
f 167//90 58//90 168//90
f 57//91 30//91 168//91
f 57//91 168//91 58//91
f 30//92 57//92 56//92
f 30//93 56//93 29//93
f 29//94 56//94 55//94
f 29//95 55//95 28//95
f 28//96 55//96 54//96
f 28//96 54//96 27//96
f 27//97 54//97 53//97
f 27//98 53//98 26//98
f 26//46 53//46 52//46
f 26//45 52//45 25//45
f 25//48 52//48 51//48
f 25//99 51//99 23//99
f 23//100 51//100 50//100
f 23//101 50//101 24//101
f 24//50 50//50 49//50
f 24//102 49//102 21//102
f 21//103 49//103 48//103
f 21//51 48//51 20//51
f 20//104 48//104 47//104
f 20//105 47//105 19//105
f 19//106 47//106 46//106
f 19//53 46//53 18//53
f 46//107 45//107 17//107
f 46//108 17//108 18//108
f 45//109 44//109 16//109
f 45//110 16//110 17//110
f 44//111 43//111 14//111
f 44//112 14//112 16//112
f 43//113 42//113 15//113
f 43//113 15//113 14//113
f 42//60 41//60 12//60
f 42//60 12//60 15//60
f 41//114 40//114 11//114
f 41//115 11//115 12//115
f 40//116 39//116 10//116
f 40//116 10//116 11//116
f 39//117 38//117 8//117
f 39//118 8//118 10//118
f 38//119 37//119 9//119
f 38//120 9//120 8//120
f 37//121 36//121 169//121
f 37//122 169//122 9//122
f 36//123 35//123 170//123
f 36//124 170//124 169//124
f 35//125 34//125 171//125
f 35//125 171//125 170//125
f 34//126 33//126 163//126
f 34//126 163//126 171//126
f 141//127 143//127 149//127
f 141//127 149//127 147//127
f 151//76 149//76 152//76
f 149//76 143//76 152//76
f 139//9 145//9 22//9
f 139//74 22//74 13//74
f 145//76 139//76 147//76
f 139//76 141//76 147//76
f 162//1 168//1 31//1
f 168//80 30//80 31//80
f 167//1 168//1 162//1
f 167//1 162//1 104//1
f 166//7 167//7 104//7
f 166//1 104//1 103//1
f 13//1 22//1 21//1
f 22//1 24//1 21//1
f 165//1 166//1 103//1
f 165//1 103//1 161//1
f 5//1 13//1 12//1
f 13//1 15//1 12//1
f 9//1 169//1 155//1
f 9//1 155//1 102//1
f 5//1 9//1 102//1
f 5//1 102//1 7//1
f 169//1 170//1 157//1
f 169//1 157//1 155//1
f 160//1 164//1 165//1
f 160//1 165//1 161//1
f 170//1 171//1 157//1
f 171//1 156//1 157//1
f 156//1 171//1 163//1
f 156//1 163//1 159//1
f 159//1 163//1 65//1
f 159//1 65//1 158//1
f 3//1 2//1 158//1
f 3//1 158//1 65//1
f 2//1 1//1 164//1
f 2//1 164//1 160//1
