# Blender v2.62 (sub 0) OBJ File: ''
# www.blender.org
mtllib pecas1x1n.mtl
o Mesh_Mesh_Cube.000_Cube.002
v -0.238835 -2.027547 -0.597877
v -0.353478 -2.027547 -0.536598
v -0.987825 -2.027547 -1.006073
v 0.014929 -2.027547 -0.648353
v -0.114440 -2.027547 -0.635611
v 0.144295 -2.027547 -0.635612
v -0.453963 -2.027547 -0.454132
v 1.012175 -2.027547 -1.006073
v 0.383333 -2.027547 -0.536598
v 0.268690 -2.027547 -0.597877
v 0.483819 -2.027547 -0.454132
v 0.566285 -2.027547 -0.353646
v 0.627563 -2.027547 -0.239003
v 0.665298 -2.027547 -0.114608
v 0.678040 -2.027547 0.014759
v -0.536429 -2.027547 -0.353646
v 1.012175 -2.027547 0.993927
v 0.627563 -2.027547 0.268520
v 0.665298 -2.027547 0.144125
v 0.566285 -2.027547 0.383163
v 0.483819 -2.027547 0.483649
v 0.383333 -2.027547 0.566115
v 0.268690 -2.027547 0.627393
v 0.144295 -2.027547 0.665128
v 0.014928 -2.027547 0.677870
v -0.597707 -2.027547 -0.239003
v -0.987825 -2.027547 0.993927
v -0.238833 -2.027547 0.627393
v -0.114438 -2.027547 0.665128
v -0.353477 -2.027547 0.566115
v -0.453962 -2.027547 0.483649
v -0.536429 -2.027547 0.383164
v -0.597707 -2.027547 0.268520
v -0.635442 -2.027547 -0.114608
v -0.635442 -2.027547 0.144125
v -0.648183 -2.027547 0.014759
v 0.014928 -2.513393 0.014758
v 0.014928 -2.513393 -0.648353
v 0.144295 -2.513393 -0.635612
v 0.268690 -2.513393 -0.597877
v 0.383333 -2.513393 -0.536599
v 0.483819 -2.513393 -0.454132
v 0.566285 -2.513393 -0.353647
v 0.627563 -2.513393 -0.239003
v 0.665298 -2.513393 -0.114608
v 0.678040 -2.513393 0.014758
v 0.665298 -2.513393 0.144125
v 0.627563 -2.513393 0.268520
v 0.566285 -2.513393 0.383163
v 0.483819 -2.513393 0.483649
v 0.383333 -2.513393 0.566115
v 0.268690 -2.513393 0.627393
v 0.144295 -2.513393 0.665128
v 0.014928 -2.513393 0.677870
v -0.114439 -2.513393 0.665128
v -0.238834 -2.513393 0.627393
v -0.353477 -2.513393 0.566115
v -0.453963 -2.513393 0.483649
v -0.536429 -2.513393 0.383163
v -0.597707 -2.513393 0.268520
v -0.635442 -2.513393 0.144124
v -0.648183 -2.513393 0.014758
v -0.635442 -2.513393 -0.114609
v -0.597707 -2.513393 -0.239004
v -0.536428 -2.513393 -0.353647
v -0.453962 -2.513393 -0.454133
v -0.353476 -2.513393 -0.536599
v -0.238833 -2.513393 -0.597877
v -0.114437 -2.513393 -0.635612
v -0.193264 -2.027547 -0.611700
v -0.663837 -0.027547 -0.718386
v -0.663837 -1.067788 -0.718386
v 0.694185 -1.067788 -0.718386
v 0.694185 -0.027547 -0.718385
v -0.663837 -0.027547 0.639636
v -0.663837 -1.067788 0.639636
v 0.694185 -0.027547 0.639637
v 0.694185 -1.067788 0.639637
v -0.987825 -0.027547 -1.006073
v 1.012175 -0.027547 -1.006073
v -0.987826 -0.027547 0.993927
v 1.012174 -0.027547 0.993928
vn -0.000000 -1.000000 -0.000000
vn -0.000000 -1.000000 -0.000001
vn 0.000001 -1.000000 -0.000000
vn -0.290285 0.000000 -0.956940
vn -0.098014 0.000000 -0.995185
vn -0.098019 0.000002 -0.995185
vn -0.290268 -0.000001 -0.956945
vn -0.290284 0.000000 -0.956941
vn -0.471397 -0.000002 -0.881921
vn -0.471403 -0.000000 -0.881918
vn -0.634390 -0.000001 -0.773013
vn -0.634394 0.000000 -0.773010
vn -0.773013 -0.000000 -0.634390
vn -0.881918 -0.000001 -0.471403
vn -0.881921 0.000001 -0.471397
vn -0.956940 0.000001 -0.290286
vn -0.995185 0.000000 -0.098013
vn -0.995185 -0.000000 0.098014
vn -0.956940 -0.000001 0.290284
vn -0.956940 -0.000000 0.290286
vn -0.881921 -0.000000 0.471397
vn -0.881923 -0.000001 0.471394
vn -0.773013 -0.000001 0.634390
vn -0.773006 0.000001 0.634398
vn -0.634390 0.000001 0.773013
vn -0.634394 -0.000000 0.773010
vn -0.471397 -0.000000 0.881921
vn -0.471394 0.000001 0.881923
vn -0.290286 0.000000 0.956940
vn -0.098021 0.000000 0.995184
vn 0.098021 -0.000000 0.995184
vn 0.290286 -0.000000 0.956940
vn 0.471397 -0.000000 0.881921
vn 0.634390 -0.000000 0.773013
vn 0.773013 -0.000000 0.634390
vn 0.881921 -0.000000 0.471397
vn 0.956940 -0.000000 0.290286
vn 0.995184 -0.000000 0.098021
vn 0.995184 -0.000000 0.098022
vn 0.995184 0.000000 -0.098022
vn 0.995184 0.000000 -0.098021
vn 0.956940 0.000000 -0.290286
vn 0.881923 0.000001 -0.471394
vn 0.881921 0.000000 -0.471397
vn 0.773010 0.000000 -0.634394
vn 0.773013 0.000001 -0.634390
vn 0.634394 0.000002 -0.773009
vn 0.634390 0.000000 -0.773013
vn 0.471397 0.000000 -0.881921
vn 0.471403 0.000002 -0.881918
vn 0.290286 0.000000 -0.956940
vn 0.098013 -0.000000 -0.995185
vn 0.098014 0.000000 -0.995185
vn 0.000000 -0.000000 1.000000
vn -0.000001 -0.000001 1.000000
vn 1.000000 -0.000000 0.000000
vn 0.000001 0.000000 -1.000000
vn -1.000000 0.000000 0.000000
vn 0.000000 1.000000 0.000000
vn 0.000000 0.000000 -1.000000
vn -1.000000 -0.000001 -0.000001
vn -0.000001 -0.000000 1.000000
vn 0.000000 -0.000001 1.000000
vn -0.000001 -1.000000 -0.000000
usemtl Material.001
s off
f 1//1 2//1 3//1
f 3//2 4//2 5//2
f 3//2 6//2 4//2
f 2//1 7//1 3//1
f 8//1 9//1 10//1
f 8//1 11//1 9//1
f 8//1 12//1 11//1
f 8//1 13//1 12//1
f 8//1 14//1 13//1
f 8//3 15//3 14//3
f 7//1 16//1 3//1
f 17//1 18//1 19//1
f 17//1 20//1 18//1
f 17//1 21//1 20//1
f 17//1 22//1 21//1
f 17//1 23//1 22//1
f 17//1 24//1 23//1
f 17//2 25//2 24//2
f 16//1 26//1 3//1
f 27//1 28//1 29//1
f 27//1 30//1 28//1
f 27//1 31//1 30//1
f 27//1 32//1 31//1
f 27//1 33//1 32//1
f 26//1 34//1 3//1
f 27//1 35//1 33//1
f 27//3 36//3 35//3
f 37//1 38//1 39//1
f 37//1 39//1 40//1
f 37//1 40//1 41//1
f 37//1 41//1 42//1
f 37//1 42//1 43//1
f 37//1 43//1 44//1
f 37//1 44//1 45//1
f 37//1 45//1 46//1
f 37//1 46//1 47//1
f 37//1 47//1 48//1
f 37//1 48//1 49//1
f 37//1 49//1 50//1
f 37//1 50//1 51//1
f 37//1 51//1 52//1
f 37//1 52//1 53//1
f 37//1 53//1 54//1
f 37//1 54//1 55//1
f 37//1 55//1 56//1
f 37//1 56//1 57//1
f 37//1 57//1 58//1
f 37//1 58//1 59//1
f 37//1 59//1 60//1
f 37//1 60//1 61//1
f 37//1 61//1 62//1
f 37//1 62//1 63//1
f 37//1 63//1 64//1
f 37//1 64//1 65//1
f 37//1 65//1 66//1
f 37//1 66//1 67//1
f 37//1 67//1 68//1
f 37//1 68//1 69//1
f 69//1 38//1 37//1
f 5//4 69//4 70//4
f 4//5 38//5 69//5
f 4//6 69//6 5//6
f 68//7 1//7 70//7
f 68//8 70//8 69//8
f 1//9 68//9 67//9
f 1//10 67//10 2//10
f 2//11 67//11 66//11
f 2//12 66//12 7//12
f 7//13 66//13 65//13
f 7//13 65//13 16//13
f 16//14 65//14 64//14
f 16//15 64//15 26//15
f 26//16 64//16 63//16
f 26//16 63//16 34//16
f 62//17 36//17 34//17
f 62//17 34//17 63//17
f 36//18 62//18 61//18
f 36//18 61//18 35//18
f 35//19 61//19 60//19
f 35//20 60//20 33//20
f 33//21 60//21 59//21
f 33//22 59//22 32//22
f 32//23 59//23 58//23
f 32//24 58//24 31//24
f 31//25 58//25 57//25
f 31//26 57//26 30//26
f 30//27 57//27 56//27
f 30//28 56//28 28//28
f 28//29 56//29 55//29
f 28//29 55//29 29//29
f 29//30 55//30 54//30
f 29//30 54//30 25//30
f 25//31 54//31 53//31
f 25//31 53//31 24//31
f 24//32 53//32 52//32
f 24//32 52//32 23//32
f 23//33 52//33 51//33
f 23//33 51//33 22//33
f 51//34 50//34 21//34
f 51//34 21//34 22//34
f 50//35 49//35 20//35
f 50//35 20//35 21//35
f 49//36 48//36 18//36
f 49//36 18//36 20//36
f 48//37 47//37 19//37
f 48//37 19//37 18//37
f 47//38 46//38 15//38
f 47//39 15//39 19//39
f 46//40 45//40 14//40
f 46//41 14//41 15//41
f 45//42 44//42 13//42
f 45//42 13//42 14//42
f 44//43 43//43 12//43
f 44//44 12//44 13//44
f 43//45 42//45 11//45
f 43//46 11//46 12//46
f 42//47 41//47 9//47
f 42//48 9//48 11//48
f 41//49 40//49 10//49
f 41//50 10//50 9//50
f 40//51 39//51 6//51
f 40//51 6//51 10//51
f 39//52 38//52 4//52
f 39//53 4//53 6//53
f 71//54 72//54 73//54
f 71//55 73//55 74//55
f 71//56 75//56 76//56
f 71//56 76//56 72//56
f 77//57 78//57 76//57
f 77//57 76//57 75//57
f 74//58 73//58 78//58
f 74//58 78//58 77//58
f 72//59 76//59 73//59
f 76//59 78//59 73//59
f 8//60 3//60 79//60
f 8//60 79//60 80//60
f 27//61 81//61 79//61
f 27//58 79//58 3//58
f 82//62 81//62 27//62
f 82//63 27//63 17//63
f 8//56 80//56 17//56
f 80//56 82//56 17//56
f 81//59 82//59 75//59
f 82//59 77//59 75//59
f 81//59 75//59 79//59
f 75//59 71//59 79//59
f 82//59 80//59 77//59
f 80//59 74//59 77//59
f 79//59 71//59 80//59
f 71//59 74//59 80//59
f 36//1 27//1 3//1
f 36//64 3//64 34//64
f 17//2 27//2 25//2
f 27//2 29//2 25//2
f 8//1 17//1 15//1
f 17//64 19//64 15//64
f 3//2 8//2 6//2
f 8//1 10//1 6//1
f 70//1 1//1 5//1
f 1//1 3//1 5//1
